name analog
datacolumns 19
datarows 57
range 0.171 0.199
endheader
time	ground_force_vx	ground_force_vy	ground_force_vz	ground_force_px	ground_force_py	ground_force_pz	l_ground_force_vx	l_ground_force_vy	l_ground_force_vz	l_ground_force_px	l_ground_force_py	l_ground_force_pz	ground_torque_x	ground_torque_y	ground_torque_z	l_ground_torque_x	l_ground_torque_y	l_ground_torque_z
0.171	-0.0	-0.0	-0.0	2.9521031379699707	-5.969292163848877	-701.0491943359375	-0.0	-0.0	-0.0	-0.0	-0.0	-0.0	-0.0	-0.0	-0.0	-0.0	-0.0	-0.0
0.1715	-0.0	-0.0	-0.0	4.106795310974121	-6.3251495361328125	-702.8311767578125	-0.0	-0.0	-0.0	-0.0	-0.0	-0.0	-0.0	-0.0	-0.0	-0.0	-0.0	-0.0
0.17200000000000001	-0.0	-0.0	-0.0	4.823386192321777	-6.863792419433594	-707.060302734375	-0.0	-0.0	-0.0	-0.0	-0.0	-0.0	-0.0	-0.0	-0.0	-0.0	-0.0	-0.0
0.17250000000000001	-0.0	-0.0	-0.0	6.1590986251831055	-7.307979106903076	-709.205078125	-0.0	-0.0	-0.0	-0.0	-0.0	-0.0	-0.0	-0.0	-0.0	-0.0	-0.0	-0.0
0.17300000000000001	-0.0	-0.0	-0.0	6.958419799804688	-7.751639842987059	-712.7117919921875	-0.0	-0.0	-0.0	-0.0	-0.0	-0.0	-0.0	-0.0	-0.0	-0.0	-0.0	-0.0
0.17350000000000002	-0.0	-0.0	-0.0	7.760011672973633	-7.490207672119141	-713.0806274414062	-0.0	-0.0	-0.0	-0.0	-0.0	-0.0	-0.0	-0.0	-0.0	-0.0	-0.0	-0.0
0.17400000000000002	-0.0	-0.0	-0.0	7.403858661651611	-7.577923774719238	-711.302001953125	-0.0	-0.0	-0.0	-0.0	-0.0	-0.0	-0.0	-0.0	-0.0	-0.0	-0.0	-0.0
0.17450000000000002	-0.0	-0.0	-0.0	8.026065826416016	-7.932605743408203	-709.8963012695312	-0.0	-0.0	-0.0	-0.0	-0.0	-0.0	-0.0	-0.0	-0.0	-0.0	-0.0	-0.0
0.17500000000000002	-0.0	-0.0	-0.0	7.679103374481201	-7.7527313232421875	-707.768310546875	-0.0	-0.0	-0.0	-0.0	-0.0	-0.0	-0.0	-0.0	-0.0	-0.0	-0.0	-0.0
0.17550000000000002	-0.0	-0.0	-0.0	9.274276733398438	-7.220078468322754	-704.2449340820312	-0.0	-0.0	-0.0	-0.0	-0.0	-0.0	-0.0	-0.0	-0.0	-0.0	-0.0	-0.0
0.176	-0.0	-0.0	-0.0	9.19347095489502	-7.2209978103637695	-699.6494140625	-0.0	-0.0	-0.0	-0.0	-0.0	-0.0	-0.0	-0.0	-0.0	-0.0	-0.0	-0.0
0.1765	-0.0	-0.0	-0.0	10.794913291931152	-7.041301727294922	-694.3430786132812	-0.0	-0.0	-0.0	-0.0	-0.0	-0.0	-0.0	-0.0	-0.0	-0.0	-0.0	-0.0
0.177	-0.0	-0.0	-0.0	11.686161041259766	-6.685195446014404	-686.2269897460938	-0.0	-0.0	-0.0	-0.0	-0.0	-0.0	-0.0	-0.0	-0.0	-0.0	-0.0	-0.0
0.1775	-0.0	-0.0	-0.0	11.777298927307127	-6.328636169433594	-681.279541015625	-0.0	-0.0	-0.0	-0.0	-0.0	-0.0	-0.0	-0.0	-0.0	-0.0	-0.0	-0.0
0.178	-0.0	-0.0	-0.0	12.310370445251465	-6.417728900909424	-682.6927490234375	-0.0	-0.0	-0.0	-0.0	-0.0	-0.0	-0.0	-0.0	-0.0	-0.0	-0.0	-0.0
0.1785	-0.0	-0.0	-0.0	12.221839904785156	-7.487895965576172	-683.4019775390625	-0.0	-0.0	-0.0	-0.0	-0.0	-0.0	-0.0	-0.0	-0.0	-0.0	-0.0	-0.0
0.179	-0.0	-0.0	-0.0	11.060442924499512	-8.467111587524414	-691.519775390625	-0.0	-0.0	-0.0	-0.0	-0.0	-0.0	-0.0	-0.0	-0.0	-0.0	-0.0	-0.0
0.1795	-0.0	-0.0	-0.0	9.009305953979492	-9.089390754699709	-694.7058715820312	-0.0	-0.0	-0.0	-0.0	-0.0	-0.0	-0.0	-0.0	-0.0	-0.0	-0.0	-0.0
0.18	-0.0	-0.0	-0.0	8.296151161193848	-9.002596855163574	-700.0035400390625	-0.0	-0.0	-0.0	-0.0	-0.0	-0.0	-0.0	-0.0	-0.0	-0.0	-0.0	-0.0
0.1805	-0.0	-0.0	-0.0	7.762368202209473	-9.536426544189451	-704.242919921875	-0.0	-0.0	-0.0	-0.0	-0.0	-0.0	-0.0	-0.0	-0.0	-0.0	-0.0	-0.0
0.181	-0.0	-0.0	-0.0	7.493545055389404	-9.358967781066896	-708.8397827148438	-0.0	-0.0	-0.0	-0.0	-0.0	-0.0	-0.0	-0.0	-0.0	-0.0	-0.0	-0.0
0.1815	-0.0	-0.0	-0.0	7.940184593200684	-10.07083797454834	-715.5457153320312	-0.0	-0.0	-0.0	-0.0	-0.0	-0.0	-0.0	-0.0	-0.0	-0.0	-0.0	-0.0
0.182	-0.0	-0.0	-0.0	8.564581871032715	-9.716033935546877	-722.604736328125	-0.0	-0.0	-0.0	-0.0	-0.0	-0.0	-0.0	-0.0	-0.0	-0.0	-0.0	-0.0
0.1825	-0.0	-0.0	-0.0	9.099361419677734	-11.05228042602539	-726.4915161132812	-0.0	-0.0	-0.0	-0.0	-0.0	-0.0	-0.0	-0.0	-0.0	-0.0	-0.0	-0.0
0.183	-0.0	-0.0	-0.0	8.921053886413574	-10.695656776428224	-727.5506591796875	-0.0	-0.0	-0.0	-0.0	-0.0	-0.0	-0.0	-0.0	-0.0	-0.0	-0.0	-0.0
0.1835	-0.0	-0.0	-0.0	8.564141273498535	-12.210662841796877	-728.9634399414062	-0.0	-0.0	-0.0	-0.0	-0.0	-0.0	-0.0	-0.0	-0.0	-0.0	-0.0	-0.0
0.184	-0.0	-0.0	-0.0	7.850404262542725	-11.675962448120115	-730.0243530273438	-0.0	-0.0	-0.0	-0.0	-0.0	-0.0	-0.0	-0.0	-0.0	-0.0	-0.0	-0.0
0.1845	-0.0	-0.0	-0.0	7.226149082183838	-11.676180839538574	-729.3157348632812	-0.0	-0.0	-0.0	-0.0	-0.0	-0.0	-0.0	-0.0	-0.0	-0.0	-0.0	-0.0
0.185	-0.0	-0.0	-0.0	6.690788269042969	-11.141424179077148	-728.257080078125	-0.0	-0.0	-0.0	-0.0	-0.0	-0.0	-0.0	-0.0	-0.0	-0.0	-0.0	-0.0
0.1855	-0.0	-0.0	-0.0	6.600286960601807	-11.052653312683104	-722.9638061523438	-0.0	-0.0	-0.0	-0.0	-0.0	-0.0	-0.0	-0.0	-0.0	-0.0	-0.0	-0.0
0.186	-0.0	-0.0	-0.0	6.065120697021484	-10.339723587036133	-718.016357421875	-0.0	-0.0	-0.0	-0.0	-0.0	-0.0	-0.0	-0.0	-0.0	-0.0	-0.0	-0.0
0.1865	-0.0	-0.0	-0.0	5.529928684234619	-9.982829093933104	-713.427001953125	-0.0	-0.0	-0.0	-0.0	-0.0	-0.0	-0.0	-0.0	-0.0	-0.0	-0.0	-0.0
0.187	-0.0	-0.0	-0.0	3.65972900390625	-9.892688751220703	-707.7767333984375	-0.0	-0.0	-0.0	-0.0	-0.0	-0.0	-0.0	-0.0	-0.0	-0.0	-0.0	-0.0
0.1875	-0.0	-0.0	-0.0	2.4999942779541016	-8.913040161132812	-704.5963745117188	-0.0	-0.0	-0.0	-0.0	-0.0	-0.0	-0.0	-0.0	-0.0	-0.0	-0.0	-0.0
0.188	-0.0	-0.0	-0.0	1.8727693557739256	-9.091300964355469	-702.8306884765625	-0.0	-0.0	-0.0	-0.0	-0.0	-0.0	-0.0	-0.0	-0.0	-0.0	-0.0	-0.0
0.1885	-0.0	-0.0	-0.0	1.0723429918289185	-8.199996948242188	-699.2933959960938	-0.0	-0.0	-0.0	-0.0	-0.0	-0.0	-0.0	-0.0	-0.0	-0.0	-0.0	-0.0
0.189	-0.0	-0.0	-0.0	1.6081955432891846	-8.286322593688965	-700.0010986328125	-0.0	-0.0	-0.0	-0.0	-0.0	-0.0	-0.0	-0.0	-0.0	-0.0	-0.0	-0.0
0.1895	-0.0	-0.0	-0.0	2.2294092178344727	-8.020883560180664	-700.710693359375	-0.0	-0.0	-0.0	-0.0	-0.0	-0.0	-0.0	-0.0	-0.0	-0.0	-0.0	-0.0
0.19	-0.0	-0.0	-0.0	3.475494861602783	-8.465532302856445	-704.2297973632812	-0.0	-0.0	-0.0	-0.0	-0.0	-0.0	-0.0	-0.0	-0.0	-0.0	-0.0	-0.0
0.1905	-0.0	-0.0	-0.0	4.991269588470459	-8.825916290283203	-705.653564453125	-0.0	-0.0	-0.0	-0.0	-0.0	-0.0	-0.0	-0.0	-0.0	-0.0	-0.0	-0.0
0.191	-0.0	-0.0	-0.0	5.170431137084961	-10.06903839111328	-707.4301147460938	-0.0	-0.0	-0.0	-0.0	-0.0	-0.0	-0.0	-0.0	-0.0	-0.0	-0.0	-0.0
0.1915	-0.0	-0.0	-0.0	4.4605255126953125	-10.335761070251465	-710.6024780273438	-0.0	-0.0	-0.0	-0.0	-0.0	-0.0	-0.0	-0.0	-0.0	-0.0	-0.0	-0.0
0.192	-0.0	-0.0	-0.0	3.7498371601104736	-9.897066116333008	-713.0750732421875	-0.0	-0.0	-0.0	-0.0	-0.0	-0.0	-0.0	-0.0	-0.0	-0.0	-0.0	-0.0
0.1925	-0.0	-0.0	-0.0	2.764252185821533	-9.451004028320312	-717.288330078125	-0.0	-0.0	-0.0	-0.0	-0.0	-0.0	-0.0	-0.0	-0.0	-0.0	-0.0	-0.0
0.193	-0.0	-0.0	-0.0	1.6996371746063232	-9.091300964355469	-717.9990234375	-0.0	-0.0	-0.0	-0.0	-0.0	-0.0	-0.0	-0.0	-0.0	-0.0	-0.0	-0.0
0.1935	-0.0	-0.0	-0.0	0.9813156127929688	-9.181830406188965	-720.1172485351562	-0.0	-0.0	-0.0	-0.0	-0.0	-0.0	-0.0	-0.0	-0.0	-0.0	-0.0	-0.0
0.194	-0.0	-0.0	-0.0	0.1798967868089676	-9.443399429321287	-721.8909912109375	-0.0	-0.0	-0.0	-0.0	-0.0	-0.0	-0.0	-0.0	-0.0	-0.0	-0.0	-0.0
0.1945	-0.0	-0.0	-0.0	-0.003053069114685	-9.2642240524292	-720.5082397460938	-0.0	-0.0	-0.0	-0.0	-0.0	-0.0	-0.0	-0.0	-0.0	-0.0	-0.0	-0.0
0.195	-0.0	-0.0	-0.0	-0.5320591926574707	-9.626083374023438	-721.2188720703125	-0.0	-0.0	-0.0	-0.0	-0.0	-0.0	-0.0	-0.0	-0.0	-0.0	-0.0	-0.0
0.1955	-0.0	-0.0	-0.0	-0.8946211338043213	-9.451173782348633	-723.6723022460938	-0.0	-0.0	-0.0	-0.0	-0.0	-0.0	-0.0	-0.0	-0.0	-0.0	-0.0	-0.0
0.196	-0.0	-0.0	-0.0	-2.1367311477661133	-10.867864608764648	-723.298828125	-0.0	-0.0	-0.0	-0.0	-0.0	-0.0	-0.0	-0.0	-0.0	-0.0	-0.0	-0.0
0.1965	-0.0	-0.0	-0.0	-3.3854899406433105	-11.226826667785645	-722.5990600585938	-0.0	-0.0	-0.0	-0.0	-0.0	-0.0	-0.0	-0.0	-0.0	-0.0	-0.0	-0.0
0.197	-0.0	-0.0	-0.0	-4.452069282531738	-10.249996185302734	-722.2454833984375	-0.0	-0.0	-0.0	-0.0	-0.0	-0.0	-0.0	-0.0	-0.0	-0.0	-0.0	-0.0
0.1975	-0.0	-0.0	-0.0	-4.193859100341797	-10.692754745483398	-723.650390625	-0.0	-0.0	-0.0	-0.0	-0.0	-0.0	-0.0	-0.0	-0.0	-0.0	-0.0	-0.0
0.198	-0.0	-0.0	-0.0	-4.632928848266602	-9.99062156677246	-725.7847900390625	-0.0	-0.0	-0.0	-0.0	-0.0	-0.0	-0.0	-0.0	-0.0	-0.0	-0.0	-0.0
0.1985	-0.0	-0.0	-0.0	-4.546614170074463	-10.342246055603027	-721.2305297851562	-0.0	-0.0	-0.0	-0.0	-0.0	-0.0	-0.0	-0.0	-0.0	-0.0	-0.0	-0.0
0.199	-0.0	-0.0	-0.0	-4.9990234375	-10.96519374847412	-723.678466796875	-0.0	-0.0	-0.0	-0.0	-0.0	-0.0	-0.0	-0.0	-0.0	-0.0	-0.0	-0.0
